Coordinates
version=1
nRows=16
nColumns=22
inDegrees=yes

Units are S.I. units (second, meters, Newtons, ...)
If the header above contains a line with 'inDegrees', this indicates whether rotational values are in degrees (yes) or radians (no).

endheader
time	pelvis_tilt	pelvis_list	pelvis_rotation	pelvis_tx	pelvis_ty	pelvis_tz	hip_flexion_r	hip_adduction_r	hip_rotation_r	knee_angle_r	ankle_angle_r	subtalar_angle_r	hip_flexion_l	hip_adduction_l	hip_rotation_l	knee_angle_l	ankle_angle_l	subtalar_angle_l	lumbar_extension	lumbar_bending	lumbar_rotation
      0.01000000	      1.14536434	      0.37078020	    -25.77192763	     -0.99945429	      0.90524592	     -0.39561507	     -6.05722735	      0.21152972	     -4.88775296	     -6.24127012	     18.45986054	     -1.72008471	     -0.31631372	     -1.74513668	     -8.20794626	    -15.57170064	     16.71896393	     -1.20991703	     -5.23547751	     -2.98377249	      3.37408756
      0.02000000	      1.14620827	      0.36993333	    -25.76354746	     -0.99949003	      0.90526396	     -0.39577315	     -6.05402231	      0.20502168	     -4.88707595	     -6.23784047	     18.45688634	     -1.72315599	     -0.31018325	     -1.73807943	     -8.21307114	    -15.56820756	     16.71556662	     -1.21047101	     -5.25288590	     -2.97556032	      3.37530382
      0.03000000	      1.16606094	      0.36643562	    -25.74991242	     -0.99955092	      0.90531298	     -0.39597176	     -6.06232584	      0.19192588	     -4.87605928	     -6.24796704	     18.43106300	     -1.74394498	     -0.30515295	     -1.72498472	     -8.21562971	    -15.59582484	     16.69145036	     -1.21550994	     -5.30079503	     -2.97416785	      3.36048247
      0.04000000	      1.16430889	      0.36532467	    -25.74066089	     -0.99957068	      0.90533092	     -0.39616395	     -6.05711856	      0.18528957	     -4.87470999	     -6.24310016	     18.42927774	     -1.74654797	     -0.29834148	     -1.71684543	     -8.21889216	    -15.58984697	     16.68988779	     -1.21618708	     -5.31654358	     -2.96296704	      3.36135597
      0.05000000	      1.17672117	      0.36290806	    -25.72717119	     -0.99960510	      0.90536916	     -0.39639539	     -6.05887752	      0.17160136	     -4.85457683	     -6.25152795	     18.40832076	     -1.76541022	     -0.29141395	     -1.70203220	     -8.20962882	    -15.60761181	     16.67578007	     -1.22226172	     -5.35583994	     -2.95468814	      3.34077660
      0.06000000	      1.17441616	      0.36172458	    -25.71761305	     -0.99960387	      0.90538564	     -0.39660528	     -6.05399865	      0.16353697	     -4.85223447	     -6.24723825	     18.40638191	     -1.76824302	     -0.28449782	     -1.69274044	     -8.21245549	    -15.60181134	     16.67463652	     -1.22324578	     -5.37204190	     -2.94318325	      3.34140325
      0.07000000	      1.18954628	      0.36183727	    -25.70807391	     -0.99961908	      0.90542672	     -0.39684067	     -6.05723860	      0.14452594	     -4.82744784	     -6.25676569	     18.38620224	     -1.78919507	     -0.28281321	     -1.67209810	     -8.20346054	    -15.61642562	     16.66297930	     -1.23170530	     -5.41287557	     -2.93934777	      3.31758040
      0.08000000	      1.18678359	      0.36048424	    -25.69957726	     -0.99959905	      0.90543982	     -0.39705186	     -6.05245060	      0.13602222	     -4.82557521	     -6.25221098	     18.38500111	     -1.79181274	     -0.27771086	     -1.66233850	     -8.20687491	    -15.61007957	     16.66207254	     -1.23285533	     -5.42835542	     -2.92881105	      3.31863311
      0.09000000	      1.18577407	      0.35936391	    -25.69300642	     -0.99957475	      0.90545300	     -0.39726429	     -6.04874324	      0.12544043	     -4.82186595	     -6.25011226	     18.38256927	     -1.79492351	     -0.27359865	     -1.65092878	     -8.20962841	    -15.60579955	     16.66071101	     -1.23431964	     -5.44509709	     -2.91897159	      3.31705535
      0.10000000	      1.21479925	      0.36474299	    -25.69044471	     -0.99957414	      0.90550261	     -0.39748990	     -6.05991596	      0.09216107	     -4.79287420	     -6.26732749	     18.36238478	     -1.82155767	     -0.29130006	     -1.61680026	     -8.20807564	    -15.60898805	     16.64523663	     -1.24914254	     -5.49678849	     -2.93295297	      3.28540544
      0.11000000	      1.25779166	      0.36619990	    -25.69477772	     -0.99949400	      0.90557622	     -0.39765669	     -6.11672890	      0.05830832	     -4.79847988	     -6.23655336	     18.37230147	     -1.89408956	     -0.36832134	     -1.57557374	     -8.21060801	    -15.54007804	     16.60560936	     -1.29833259	     -5.55036053	     -2.95575306	      3.30401193
      0.12000000	      1.25501648	      0.36275547	    -25.68793237	     -0.99944517	      0.90557688	     -0.39787065	     -6.11334841	      0.04947975	     -4.79576997	     -6.23553658	     18.37188731	     -1.89501887	     -0.36515846	     -1.56596403	     -8.21305177	    -15.53745752	     16.60625160	     -1.29899271	     -5.56050885	     -2.94326315	      3.30481639
      0.13000000	      1.25217909	      0.35922060	    -25.68159757	     -0.99939519	      0.90557464	     -0.39807765	     -6.10996300	      0.04141089	     -4.79343076	     -6.23494646	     18.37129152	     -1.89594130	     -0.36229218	     -1.55667657	     -8.21581855	    -15.53367759	     16.60714303	     -1.29979262	     -5.57035909	     -2.93304909	      3.30518391
      0.14000000	      1.24955549	      0.35562394	    -25.67543636	     -0.99933455	      0.90556947	     -0.39828002	     -6.10745285	      0.03311447	     -4.79155163	     -6.23510300	     18.37062098	     -1.89686636	     -0.36054918	     -1.54736728	     -8.21865464	    -15.52970287	     16.60836583	     -1.30073578	     -5.57761407	     -2.92291944	      3.30592126
      0.15000000	      1.24694730	      0.35197903	    -25.66978247	     -0.99926211	      0.90556301	     -0.39847811	     -6.10581520	      0.02464995	     -4.79032542	     -6.23568404	     18.36993401	     -1.89784083	     -0.35984867	     -1.53770490	     -8.22132027	    -15.52562809	     16.61008444	     -1.30189502	     -5.58212908	     -2.91219641	      3.30756930
      0.16000000	      1.24435168	      0.34821894	    -25.66511024	     -0.99917595	      0.90555597	     -0.39866576	     -6.10515801	      0.01650723	     -4.78990449	     -6.23634347	     18.36929695	     -1.89879090	     -0.36028235	     -1.52814134	     -8.22333943	    -15.52210501	     16.61221726	     -1.30320211	     -5.58334635	     -2.90133879	      3.31057459
